<mxfile host="app.diagrams.net" modified="2023-03-17T09:25:23.012Z" agent="5.0 (Windows NT 10.0; Win64; x64) AppleWebKit/537.36 (KHTML, like Gecko) Chrome/111.0.0.0 Safari/537.36 Edg/111.0.1661.41" etag="aAtakY74tMph77lGhrrs" version="20.8.23" type="github">
  <diagram name="Page-1" id="RAXr_hjjFQmrgG1iH99k">
    <mxGraphModel dx="2514" dy="1040" grid="1" gridSize="10" guides="1" tooltips="1" connect="1" arrows="1" fold="1" page="1" pageScale="1" pageWidth="827" pageHeight="1169" math="0" shadow="0">
      <root>
        <mxCell id="0" />
        <mxCell id="1" parent="0" />
        <mxCell id="Rf8Fvv26KR735bPr0MUb-5" value="Conti" style="swimlane;whiteSpace=wrap;html=1;" parent="1" vertex="1">
          <mxGeometry x="-220" y="140" width="650" height="455" as="geometry" />
        </mxCell>
        <mxCell id="Rf8Fvv26KR735bPr0MUb-44" value="" style="rounded=0;whiteSpace=wrap;html=1;align=right;" parent="Rf8Fvv26KR735bPr0MUb-5" vertex="1">
          <mxGeometry x="370" y="60" width="240" height="250" as="geometry" />
        </mxCell>
        <mxCell id="Rf8Fvv26KR735bPr0MUb-7" value="require" style="text;html=1;strokeColor=none;fillColor=none;align=center;verticalAlign=middle;whiteSpace=wrap;rounded=0;" parent="Rf8Fvv26KR735bPr0MUb-5" vertex="1">
          <mxGeometry x="160" y="160" width="60" height="30" as="geometry" />
        </mxCell>
        <mxCell id="Rf8Fvv26KR735bPr0MUb-2" value="hpc_bootloader" style="rounded=1;whiteSpace=wrap;html=1;" parent="Rf8Fvv26KR735bPr0MUb-5" vertex="1">
          <mxGeometry x="94" y="250" width="120" height="60" as="geometry" />
        </mxCell>
        <mxCell id="Rf8Fvv26KR735bPr0MUb-1" value="hpc_gen2" style="rounded=1;whiteSpace=wrap;html=1;" parent="Rf8Fvv26KR735bPr0MUb-5" vertex="1">
          <mxGeometry x="94" y="50" width="120" height="60" as="geometry" />
        </mxCell>
        <mxCell id="Rf8Fvv26KR735bPr0MUb-3" value="" style="edgeStyle=orthogonalEdgeStyle;rounded=0;orthogonalLoop=1;jettySize=auto;html=1;endArrow=none;endFill=0;" parent="Rf8Fvv26KR735bPr0MUb-5" source="Rf8Fvv26KR735bPr0MUb-2" target="Rf8Fvv26KR735bPr0MUb-1" edge="1">
          <mxGeometry relative="1" as="geometry" />
        </mxCell>
        <mxCell id="Rf8Fvv26KR735bPr0MUb-6" value="" style="edgeStyle=orthogonalEdgeStyle;rounded=0;orthogonalLoop=1;jettySize=auto;html=1;endArrow=none;endFill=0;startArrow=classic;startFill=1;" parent="Rf8Fvv26KR735bPr0MUb-5" source="Rf8Fvv26KR735bPr0MUb-2" target="Rf8Fvv26KR735bPr0MUb-1" edge="1">
          <mxGeometry relative="1" as="geometry" />
        </mxCell>
        <mxCell id="Rf8Fvv26KR735bPr0MUb-35" value=".zip" style="shape=cube;whiteSpace=wrap;html=1;boundedLbl=1;backgroundOutline=1;darkOpacity=0.05;darkOpacity2=0.1;size=15;" parent="Rf8Fvv26KR735bPr0MUb-5" vertex="1">
          <mxGeometry x="420" y="180" width="70" height="60" as="geometry" />
        </mxCell>
        <mxCell id="Rf8Fvv26KR735bPr0MUb-39" style="edgeStyle=entityRelationEdgeStyle;rounded=0;orthogonalLoop=1;jettySize=auto;html=1;startArrow=none;startFill=0;endArrow=classic;endFill=1;dashed=1;dashPattern=8 8;" parent="Rf8Fvv26KR735bPr0MUb-5" source="Rf8Fvv26KR735bPr0MUb-2" target="Rf8Fvv26KR735bPr0MUb-35" edge="1">
          <mxGeometry relative="1" as="geometry" />
        </mxCell>
        <mxCell id="Rf8Fvv26KR735bPr0MUb-40" value="upload" style="text;html=1;strokeColor=none;fillColor=none;align=center;verticalAlign=middle;whiteSpace=wrap;rounded=0;" parent="Rf8Fvv26KR735bPr0MUb-5" vertex="1">
          <mxGeometry x="270" y="140" width="60" height="30" as="geometry" />
        </mxCell>
        <mxCell id="Rf8Fvv26KR735bPr0MUb-41" value="conan" style="shape=cube;whiteSpace=wrap;html=1;boundedLbl=1;backgroundOutline=1;darkOpacity=0.05;darkOpacity2=0.1;" parent="Rf8Fvv26KR735bPr0MUb-5" vertex="1">
          <mxGeometry x="420" y="70" width="70" height="60" as="geometry" />
        </mxCell>
        <mxCell id="Rf8Fvv26KR735bPr0MUb-42" style="edgeStyle=entityRelationEdgeStyle;rounded=0;orthogonalLoop=1;jettySize=auto;html=1;exitX=1;exitY=0.5;exitDx=0;exitDy=0;startArrow=none;startFill=0;endArrow=classic;endFill=1;" parent="Rf8Fvv26KR735bPr0MUb-5" source="Rf8Fvv26KR735bPr0MUb-2" target="Rf8Fvv26KR735bPr0MUb-41" edge="1">
          <mxGeometry relative="1" as="geometry" />
        </mxCell>
        <mxCell id="Rf8Fvv26KR735bPr0MUb-46" value="upload On Release" style="text;html=1;strokeColor=none;fillColor=none;align=center;verticalAlign=middle;whiteSpace=wrap;rounded=0;" parent="Rf8Fvv26KR735bPr0MUb-5" vertex="1">
          <mxGeometry x="295" y="260" width="60" height="30" as="geometry" />
        </mxCell>
        <mxCell id="Rf8Fvv26KR735bPr0MUb-14" value="Renault" style="swimlane;whiteSpace=wrap;html=1;" parent="1" vertex="1">
          <mxGeometry x="610" y="140" width="480" height="455" as="geometry" />
        </mxCell>
        <mxCell id="Rf8Fvv26KR735bPr0MUb-45" value="" style="rounded=0;whiteSpace=wrap;html=1;align=right;" parent="Rf8Fvv26KR735bPr0MUb-14" vertex="1">
          <mxGeometry x="30" y="40" width="210" height="240" as="geometry" />
        </mxCell>
        <mxCell id="Rf8Fvv26KR735bPr0MUb-15" value="download" style="text;html=1;strokeColor=none;fillColor=none;align=center;verticalAlign=middle;whiteSpace=wrap;rounded=0;" parent="Rf8Fvv26KR735bPr0MUb-14" vertex="1">
          <mxGeometry x="235" y="280" width="60" height="30" as="geometry" />
        </mxCell>
        <mxCell id="Rf8Fvv26KR735bPr0MUb-16" value="hpc_bootloader_repackage" style="rounded=1;whiteSpace=wrap;html=1;" parent="Rf8Fvv26KR735bPr0MUb-14" vertex="1">
          <mxGeometry x="295" y="310" width="170" height="40" as="geometry" />
        </mxCell>
        <mxCell id="Rf8Fvv26KR735bPr0MUb-17" value="hpc_gen2" style="rounded=1;whiteSpace=wrap;html=1;" parent="Rf8Fvv26KR735bPr0MUb-14" vertex="1">
          <mxGeometry x="320" y="75" width="120" height="60" as="geometry" />
        </mxCell>
        <mxCell id="Rf8Fvv26KR735bPr0MUb-18" value="" style="edgeStyle=orthogonalEdgeStyle;rounded=0;orthogonalLoop=1;jettySize=auto;html=1;endArrow=none;endFill=0;" parent="Rf8Fvv26KR735bPr0MUb-14" source="Rf8Fvv26KR735bPr0MUb-16" target="Rf8Fvv26KR735bPr0MUb-17" edge="1">
          <mxGeometry relative="1" as="geometry" />
        </mxCell>
        <mxCell id="Rf8Fvv26KR735bPr0MUb-19" value="" style="edgeStyle=orthogonalEdgeStyle;rounded=0;orthogonalLoop=1;jettySize=auto;html=1;endArrow=none;endFill=0;startArrow=classic;startFill=1;" parent="Rf8Fvv26KR735bPr0MUb-14" source="Rf8Fvv26KR735bPr0MUb-16" target="Rf8Fvv26KR735bPr0MUb-17" edge="1">
          <mxGeometry relative="1" as="geometry" />
        </mxCell>
        <mxCell id="Rf8Fvv26KR735bPr0MUb-26" value=".zip" style="shape=cube;whiteSpace=wrap;html=1;boundedLbl=1;backgroundOutline=1;darkOpacity=0.05;darkOpacity2=0.1;size=15;" parent="Rf8Fvv26KR735bPr0MUb-14" vertex="1">
          <mxGeometry x="70" y="180" width="70" height="60" as="geometry" />
        </mxCell>
        <mxCell id="Rf8Fvv26KR735bPr0MUb-27" value="require" style="text;html=1;strokeColor=none;fillColor=none;align=center;verticalAlign=middle;whiteSpace=wrap;rounded=0;" parent="Rf8Fvv26KR735bPr0MUb-14" vertex="1">
          <mxGeometry x="390" y="190" width="60" height="30" as="geometry" />
        </mxCell>
        <mxCell id="Rf8Fvv26KR735bPr0MUb-30" value="ConanData.yml" style="shape=note;whiteSpace=wrap;html=1;backgroundOutline=1;darkOpacity=0.05;" parent="Rf8Fvv26KR735bPr0MUb-14" vertex="1">
          <mxGeometry x="300" y="355" width="90" height="90" as="geometry" />
        </mxCell>
        <mxCell id="Rf8Fvv26KR735bPr0MUb-31" style="edgeStyle=entityRelationEdgeStyle;rounded=0;orthogonalLoop=1;jettySize=auto;html=1;entryX=0;entryY=0;entryDx=80;entryDy=42.5;entryPerimeter=0;startArrow=classic;startFill=1;endArrow=none;endFill=0;" parent="Rf8Fvv26KR735bPr0MUb-14" source="Rf8Fvv26KR735bPr0MUb-16" target="Rf8Fvv26KR735bPr0MUb-26" edge="1">
          <mxGeometry relative="1" as="geometry" />
        </mxCell>
        <mxCell id="Rf8Fvv26KR735bPr0MUb-49" value="Actor" style="shape=umlActor;verticalLabelPosition=bottom;verticalAlign=top;html=1;outlineConnect=0;" parent="Rf8Fvv26KR735bPr0MUb-14" vertex="1">
          <mxGeometry x="240" y="350" width="30" height="60" as="geometry" />
        </mxCell>
        <mxCell id="BIpj4RTWhaLMTsqC55FD-9" value="conan" style="shape=cube;whiteSpace=wrap;html=1;boundedLbl=1;backgroundOutline=1;darkOpacity=0.05;darkOpacity2=0.1;dashed=1;" vertex="1" parent="Rf8Fvv26KR735bPr0MUb-14">
          <mxGeometry x="70" y="70" width="70" height="60" as="geometry" />
        </mxCell>
        <mxCell id="BIpj4RTWhaLMTsqC55FD-1" value="" style="endArrow=classic;html=1;rounded=0;exitX=0;exitY=0;exitDx=70;exitDy=37.5;exitPerimeter=0;entryX=0;entryY=0;entryDx=0;entryDy=45;entryPerimeter=0;" edge="1" parent="1" source="Rf8Fvv26KR735bPr0MUb-35" target="Rf8Fvv26KR735bPr0MUb-26">
          <mxGeometry width="50" height="50" relative="1" as="geometry">
            <mxPoint x="360" y="600" as="sourcePoint" />
            <mxPoint x="410" y="550" as="targetPoint" />
          </mxGeometry>
        </mxCell>
        <mxCell id="BIpj4RTWhaLMTsqC55FD-10" style="edgeStyle=orthogonalEdgeStyle;rounded=0;orthogonalLoop=1;jettySize=auto;html=1;dashed=1;" edge="1" parent="1" source="Rf8Fvv26KR735bPr0MUb-41" target="BIpj4RTWhaLMTsqC55FD-9">
          <mxGeometry relative="1" as="geometry" />
        </mxCell>
      </root>
    </mxGraphModel>
  </diagram>
</mxfile>
